<mxfile host="app.diagrams.net" agent="Mozilla/5.0 (Windows NT 10.0; Win64; x64) AppleWebKit/537.36 (KHTML, like Gecko) Chrome/127.0.0.0 Safari/537.36" version="24.7.7">
  <diagram name="第 1 页" id="Rya_vYvpKmD_-6LV_GzO">
    <mxGraphModel dx="1221" dy="725" grid="1" gridSize="10" guides="1" tooltips="1" connect="1" arrows="1" fold="1" page="1" pageScale="1" pageWidth="827" pageHeight="1169" math="0" shadow="0">
      <root>
        <mxCell id="0" />
        <mxCell id="1" parent="0" />
        <mxCell id="iKIXCy3XkFldnfTqUsob-7" style="edgeStyle=orthogonalEdgeStyle;rounded=0;orthogonalLoop=1;jettySize=auto;html=1;exitX=0.5;exitY=1;exitDx=0;exitDy=0;endArrow=none;endFill=0;" edge="1" parent="1" source="iKIXCy3XkFldnfTqUsob-1" target="iKIXCy3XkFldnfTqUsob-2">
          <mxGeometry relative="1" as="geometry" />
        </mxCell>
        <mxCell id="iKIXCy3XkFldnfTqUsob-1" value="动态图形标绘" style="rounded=1;whiteSpace=wrap;html=1;" vertex="1" parent="1">
          <mxGeometry x="300" y="260" width="120" height="60" as="geometry" />
        </mxCell>
        <mxCell id="iKIXCy3XkFldnfTqUsob-8" style="edgeStyle=orthogonalEdgeStyle;rounded=0;orthogonalLoop=1;jettySize=auto;html=1;exitX=0.5;exitY=1;exitDx=0;exitDy=0;" edge="1" parent="1" source="iKIXCy3XkFldnfTqUsob-2" target="iKIXCy3XkFldnfTqUsob-3">
          <mxGeometry relative="1" as="geometry" />
        </mxCell>
        <mxCell id="iKIXCy3XkFldnfTqUsob-2" value="动态图形库管理" style="rounded=1;whiteSpace=wrap;html=1;" vertex="1" parent="1">
          <mxGeometry x="300" y="350" width="120" height="60" as="geometry" />
        </mxCell>
        <mxCell id="iKIXCy3XkFldnfTqUsob-9" style="edgeStyle=orthogonalEdgeStyle;rounded=0;orthogonalLoop=1;jettySize=auto;html=1;exitX=0.5;exitY=1;exitDx=0;exitDy=0;" edge="1" parent="1" source="iKIXCy3XkFldnfTqUsob-3" target="iKIXCy3XkFldnfTqUsob-5">
          <mxGeometry relative="1" as="geometry" />
        </mxCell>
        <mxCell id="iKIXCy3XkFldnfTqUsob-3" value="动态图形标绘" style="rounded=1;whiteSpace=wrap;html=1;" vertex="1" parent="1">
          <mxGeometry x="300" y="440" width="120" height="60" as="geometry" />
        </mxCell>
        <mxCell id="iKIXCy3XkFldnfTqUsob-10" style="edgeStyle=orthogonalEdgeStyle;rounded=0;orthogonalLoop=1;jettySize=auto;html=1;exitX=0.5;exitY=1;exitDx=0;exitDy=0;" edge="1" parent="1" source="iKIXCy3XkFldnfTqUsob-5" target="iKIXCy3XkFldnfTqUsob-6">
          <mxGeometry relative="1" as="geometry" />
        </mxCell>
        <mxCell id="iKIXCy3XkFldnfTqUsob-5" value="多重动态图形协同&lt;span style=&quot;color: rgba(0, 0, 0, 0); font-family: monospace; font-size: 0px; text-align: start; text-wrap: nowrap;&quot;&gt;%3CmxGraphModel%3E%3Croot%3E%3CmxCell%20id%3D%220%22%2F%3E%3CmxCell%20id%3D%221%22%20parent%3D%220%22%2F%3E%3CmxCell%20id%3D%222%22%20value%3D%22%E5%8A%A8%E6%80%81%E5%9B%BE%E5%BD%A2%E6%A0%87%E7%BB%98%22%20style%3D%22rounded%3D1%3BwhiteSpace%3Dwrap%3Bhtml%3D1%3B%22%20vertex%3D%221%22%20parent%3D%221%22%3E%3CmxGeometry%20x%3D%22300%22%20y%3D%22440%22%20width%3D%22120%22%20height%3D%2260%22%20as%3D%22geometry%22%2F%3E%3C%2FmxCell%3E%3C%2Froot%3E%3C%2FmxGraphModel%3E&lt;/span&gt;" style="rounded=1;whiteSpace=wrap;html=1;" vertex="1" parent="1">
          <mxGeometry x="300" y="530" width="120" height="60" as="geometry" />
        </mxCell>
        <mxCell id="iKIXCy3XkFldnfTqUsob-6" value="标绘方案保存输出" style="rounded=1;whiteSpace=wrap;html=1;" vertex="1" parent="1">
          <mxGeometry x="300" y="620" width="120" height="60" as="geometry" />
        </mxCell>
      </root>
    </mxGraphModel>
  </diagram>
</mxfile>
